<?xml version="1.0" standalone="no"?><!DOCTYPE svg PUBLIC "-//W3C//DTD SVG 1.1//EN" "http://www.w3.org/Graphics/SVG/1.1/DTD/svg11.dtd"><svg t="1640313008234" class="icon" viewBox="0 0 1024 1024" version="1.1" xmlns="http://www.w3.org/2000/svg" p-id="4361" xmlns:xlink="http://www.w3.org/1999/xlink" width="128" height="128"><defs><style type="text/css"></style></defs><path d="M672 992c-17.6 0-32-14.4-32-32s14.4-32 32-32c142.4 0 192-9.6 192-204.8V480c0-193.6-158.4-352-352-352S160 286.4 160 480v243.2C160 918.4 209.6 928 352 928c17.6 0 32 14.4 32 32s-14.4 32-32 32c-177.6 0-256-38.4-256-268.8V480C96 251.2 283.2 64 512 64s416 187.2 416 416v243.2C928 953.6 849.6 992 672 992z m-160-97.6C345.6 894.4 209.6 752 209.6 576v-96c0-17.6 14.4-30.4 30.4-30.4 113.6 0 176-17.6 241.6-36.8 35.2-9.6 70.4-19.2 115.2-27.2 124.8-20.8 192-3.2 195.2-3.2 12.8 3.2 22.4 16 22.4 30.4V576c0 176-136 318.4-302.4 318.4z m-241.6-384V576c0 142.4 108.8 257.6 241.6 257.6S753.6 718.4 753.6 576V438.4c-25.6-3.2-75.2-4.8-145.6 8-41.6 6.4-73.6 16-108.8 25.6-60.8 17.6-124.8 35.2-228.8 38.4z" p-id="4362"></path></svg>