<?xml version="1.0" standalone="no"?><!DOCTYPE svg PUBLIC "-//W3C//DTD SVG 1.1//EN" "http://www.w3.org/Graphics/SVG/1.1/DTD/svg11.dtd"><svg t="1640313001786" class="icon" viewBox="0 0 1024 1024" version="1.1" xmlns="http://www.w3.org/2000/svg" p-id="4214" xmlns:xlink="http://www.w3.org/1999/xlink" width="128" height="128"><defs><style type="text/css"></style></defs><path d="M512 992c-193.6 0-352-158.4-352-352V433.6C102.4 395.2 64 312 64 128c0-11.2 6.4-22.4 17.6-28.8 9.6-4.8 22.4-4.8 32 1.6 0 0 92.8 59.2 270.4 59.2 46.4 0 76.8-6.4 112-12.8 43.2-9.6 92.8-19.2 176-19.2 212.8 0 288 137.6 288 256 0 110.4-70.4 206.4-96 235.2V640c0 193.6-158.4 352-352 352zM224 457.6V640c0 158.4 129.6 288 288 288s288-129.6 288-288V411.2c-24-1.6-65.6-1.6-123.2 11.2-107.2 24-228.8 52.8-342.4 43.2-12.8-1.6-25.6-1.6-38.4-1.6-25.6-1.6-49.6-1.6-72-6.4z m550.4-112c40 0 62.4 6.4 67.2 8 12.8 4.8 22.4 16 22.4 30.4v120c17.6-33.6 32-75.2 32-120 0-120-83.2-192-224-192-76.8 0-120 8-163.2 17.6C472 216 436.8 224 384 224c-120 0-206.4-24-254.4-44.8C139.2 396.8 212.8 398.4 296 400c14.4 0 28.8 0 43.2 1.6 102.4 8 219.2-17.6 321.6-41.6 48-11.2 84.8-14.4 113.6-14.4zM192 652.8c-8 0-17.6-3.2-22.4-9.6C164.8 638.4 64 532.8 64 432c0-94.4 24-128 30.4-136l46.4 43.2 1.6-1.6s-16 22.4-16 94.4c0 62.4 62.4 142.4 86.4 168 12.8 12.8 11.2 33.6-1.6 44.8-3.2 6.4-11.2 8-19.2 8z" p-id="4215"></path></svg>