<?xml version="1.0" standalone="no"?><!DOCTYPE svg PUBLIC "-//W3C//DTD SVG 1.1//EN" "http://www.w3.org/Graphics/SVG/1.1/DTD/svg11.dtd"><svg t="1641365007998" class="icon" viewBox="0 0 1024 1024" version="1.1" xmlns="http://www.w3.org/2000/svg" p-id="3963" xmlns:xlink="http://www.w3.org/1999/xlink" width="128" height="128"><defs><style type="text/css"></style></defs><path d="M647.499 60.657H375.167c-89.602 0-162.497 72.895-162.497 162.497v573.907c0 89.602 72.895 162.497 162.497 162.497h272.332c89.602 0 162.497-72.895 162.497-162.497V223.154c0.001-89.602-72.895-162.497-162.497-162.497z m108.332 736.404c0 59.733-48.598 108.331-108.331 108.331H375.167c-59.733 0-108.331-48.598-108.331-108.331V223.154c0-59.733 48.598-108.332 108.331-108.332h56.168c0.15 14.827 12.193 26.81 27.055 26.81h105.885c14.863 0 26.905-11.983 27.055-26.81h56.168c59.733 0 108.331 48.598 108.331 108.332v573.907z"  p-id="3964"></path><path d="M564.276 819.304H458.391c-14.956 0-27.083 12.126-27.083 27.083s12.126 27.083 27.083 27.083h105.885c14.956 0 27.083-12.126 27.083-27.083s-12.127-27.083-27.083-27.083z"  p-id="3965"></path></svg>