<?xml version="1.0" standalone="no"?><!DOCTYPE svg PUBLIC "-//W3C//DTD SVG 1.1//EN" "http://www.w3.org/Graphics/SVG/1.1/DTD/svg11.dtd"><svg t="1641365074159" class="icon" viewBox="0 0 1024 1024" version="1.1" xmlns="http://www.w3.org/2000/svg" p-id="10141" xmlns:xlink="http://www.w3.org/1999/xlink" width="128" height="128"><defs><style type="text/css"></style></defs><path d="M73.216 938.496c-22.528 0-40.96-18.432-40.96-40.96V143.36c0-22.528 18.432-40.96 40.96-40.96s40.96 18.432 40.96 40.96v754.176c0 23.04-18.432 40.96-40.96 40.96zM552.448 946.688H226.816c-16.384 0-31.232-9.728-37.376-24.576-6.656-14.848-3.584-32.256 7.68-44.544 99.328-104.96 351.744-415.744 328.192-593.92-5.632-42.496-27.136-74.24-65.024-97.28-84.992-51.2-198.144 112.128-199.168 114.176-12.8 18.944-37.888 24.064-56.832 11.264-18.944-12.288-24.064-37.888-11.264-56.832 1.536-2.048 36.864-55.296 89.088-99.328 103.936-87.552 182.784-61.952 220.16-39.424 59.904 36.352 94.72 88.576 103.936 156.16 26.112 193.024-180.736 465.408-288.256 592.384H552.96c22.528 0 40.96 18.432 40.96 40.96s-18.432 40.96-41.472 40.96zM743.936 928.256c-37.376 0-66.048-4.096-72.704-5.12-22.528-3.584-37.888-24.576-34.304-46.592 3.584-22.528 24.576-37.888 46.592-34.304 37.888 5.632 147.456 11.264 198.144-30.72 17.92-14.848 26.624-33.792 27.648-59.904 2.048-53.248-11.776-94.72-41.984-125.952-60.928-62.464-170.496-64-173.056-64h-0.512c-22.016 0-39.936-17.408-40.96-39.424-1.024-22.016 16.384-40.96 38.4-42.496 9.216-0.512 224.256-17.92 217.6-206.848-1.536-36.864-15.872-51.712-27.136-59.392-51.2-35.84-165.376-11.776-201.216-0.512-21.504 6.656-44.544-5.12-51.2-26.624-6.656-21.504 5.12-44.544 26.624-51.2 17.92-5.632 179.712-54.272 272.896 11.776 26.624 18.944 59.392 55.808 61.952 123.392 4.096 109.056-44.032 193.536-139.264 245.248 26.112 12.8 52.224 29.696 74.752 52.736 46.08 47.616 68.096 110.08 65.024 185.856-2.048 49.152-22.016 90.624-57.344 119.808-53.76 45.056-132.608 54.272-189.952 54.272z" p-id="10142"></path></svg>